<?xml version="1.0"?>
<svg width="896" height="896" xmlns="http://www.w3.org/2000/svg" xmlns:svg="http://www.w3.org/2000/svg" preserveAspectRatio="xMidYMid meet" version="1.0">
 <g class="layer">
  <title>Layer 1</title>
  <g fill="#000000" id="svg_1" transform="matrix(1 0 0 1 0 0) matrix(0.1 0 0 -0.103831 0 -0.999578)">
   <path d="m4185,-281c-1330,-100 -2492,-785 -3233,-1906c-84,-127 -232,-387 -232,-408c0,-3 1692,-5 3760,-5c2068,0 3760,2 3760,5c0,10 -52,109 -113,215c-581,1011 -1578,1747 -2712,2004c-401,90 -839,124 -1230,95z" id="svg_2"/>
  </g>
  <g fill="#000000" id="svg_3" transform="matrix(-0.1 -0.00000819209 -0.0000079551 0.102979 921.074 1404.21)">
   <path d="m4431.31,-5921.47c-1330,-100 -2492,-785 -3233,-1906c-84,-127 -232,-387 -232,-408c0,-3 1692,-5 3760,-5c2068,0 3760,2 3760,5c0,10 -52,109 -113,215c-581,1011 -1578,1747 -2712,2004c-401,90 -839,124 -1230,95z" fill="#ff7f00" id="svg_4"/>
  </g>
 </g>
</svg>